<!DOCTYPE svg PUBLIC "-//W3C//DTD SVG 1.1//EN" "http://www.w3.org/Graphics/SVG/1.1/DTD/svg11.dtd">
<!-- Uploaded to: SVG Repo, www.svgrepo.com, Transformed by: SVG Repo Mixer Tools -->
<svg height="100px" width="100px" version="1.1" id="Layer_1" xmlns="http://www.w3.org/2000/svg" xmlns:xlink="http://www.w3.org/1999/xlink" viewBox="0 0 512.289 512.289" xml:space="preserve" fill="#000000">
<g id="SVGRepo_bgCarrier" stroke-width="0"/>
<g id="SVGRepo_tracerCarrier" stroke-linecap="round" stroke-linejoin="round"/>
<g id="SVGRepo_iconCarrier"> <g transform="translate(1 1)"> <g> <path style="fill:#FFDD09;" d="M255.037,110.078c17.067-47.787,52.907-84.48,98.133-84.48c37.547,0,69.12,22.187,94.72,52.907 c34.133,41.813,48.64,134.827-13.653,202.24c-32.427,34.133-179.2,204.8-179.2,204.8S109.971,314.024,76.691,279.891 c-63.147-66.56-48.64-158.72-13.653-202.24c24.747-30.72,56.32-52.907,94.72-52.907 C202.984,25.598,237.971,62.291,255.037,110.078"/> <path style="fill:#FFDD09;" d="M255.037,109.224L255.037,109.224L255.037,109.224L255.037,109.224"/> </g> <path style="fill:#FFFFFF;" d="M76.691,279.891c-63.147-67.413-48.64-159.573-13.653-202.24 c23.893-29.013,52.907-50.347,88.747-52.907c-1.707,0-3.413,0-5.12,0c-42.667,0-77.653,22.187-105.813,52.907 c-39.253,42.667-55.467,135.68,15.36,202.24c34.987,33.28,189.44,196.267,198.827,204.8 C247.357,475.304,108.264,313.171,76.691,279.891"/> <path style="fill:#FD9808;" d="M470.077,77.651c-28.16-30.72-63.147-52.907-105.813-52.907c-1.707,0-3.413,0-5.12,0 c34.987,2.56,64.853,23.04,87.893,52.053c34.133,41.813,48.64,134.827-13.653,202.24c-32.427,34.987-177.493,204.8-178.347,205.653 l0,0c0,0,162.987-170.667,198.827-205.653C524.691,211.624,507.624,119.464,470.077,77.651"/> <path d="M255.037,494.078L255.037,494.078c-2.56,0-4.267-0.853-5.973-2.56c-1.707-1.707-162.987-171.52-198.827-204.8 c-76.8-73.387-54.613-171.52-15.36-215.04c33.28-36.693,70.827-55.467,111.787-55.467c44.373,0,85.333,27.307,108.373,72.533 c23.893-45.227,64-72.533,109.227-72.533c40.107,0,79.36,18.773,111.787,55.467c38.4,42.667,60.587,140.8-15.36,214.187 c-34.987,34.133-197.12,203.093-198.827,204.8C260.157,493.224,257.597,494.078,255.037,494.078z M146.664,34.131 c-34.987,0-69.12,17.067-98.987,49.493c-34.987,38.4-54.613,124.587,14.507,190.293c32.427,30.72,162.987,167.253,192.853,199.68 c29.867-31.573,161.28-168.96,192.853-198.827c68.267-65.707,48.64-152.747,14.507-190.293 c-29.013-34.133-62.293-50.347-98.133-50.347c-43.52,0-81.92,30.72-101.547,79.36c-0.853,2.56-4.267,5.12-7.68,5.12 c-3.413,0-6.827-2.56-7.68-5.12C227.731,63.998,189.331,34.131,146.664,34.131z"/> </g> </g>
</svg>